<?xml version="1.0" encoding="UTF-8" standalone="no"?>
<!DOCTYPE svg PUBLIC "-//W3C//DTD SVG 1.1//EN"
 "http://www.w3.org/Graphics/SVG/1.1/DTD/svg11.dtd">
<!-- Generated by graphviz version 2.44.0 (0)
 -->
<!-- Title: G Pages: 1 -->
<svg width="1577pt" height="260pt"
 viewBox="0.00 0.00 1577.42 260.00" xmlns="http://www.w3.org/2000/svg" xmlns:xlink="http://www.w3.org/1999/xlink">
<g id="graph0" class="graph" transform="scale(1 1) rotate(0) translate(4 256)">
<title>G</title>
<polygon fill="white" stroke="transparent" points="-4,4 -4,-256 1573.42,-256 1573.42,4 -4,4"/>
<!-- aws_db_instance.magento -->
<g id="node1" class="node">
<title>aws_db_instance.magento</title>
<ellipse fill="none" stroke="black" cx="103.99" cy="-234" rx="103.98" ry="18"/>
<text text-anchor="middle" x="103.99" y="-230.3" font-family="Times,serif" font-size="14.00">aws_db_instance.magento</text>
</g>
<!-- aws_security_group.rds -->
<g id="node2" class="node">
<title>aws_security_group.rds</title>
<polygon fill="none" stroke="black" points="203.99,-180 57.99,-180 57.99,-144 203.99,-144 203.99,-180"/>
<text text-anchor="middle" x="130.99" y="-158.3" font-family="Times,serif" font-size="14.00">aws_security_group.rds</text>
</g>
<!-- aws_db_instance.magento&#45;&gt;aws_security_group.rds -->
<g id="edge1" class="edge">
<title>aws_db_instance.magento&#45;&gt;aws_security_group.rds</title>
<path fill="none" stroke="black" d="M110.66,-215.7C113.71,-207.81 117.37,-198.3 120.75,-189.55"/>
<polygon fill="black" stroke="black" points="124.06,-190.69 124.39,-180.1 117.53,-188.17 124.06,-190.69"/>
</g>
<!-- aws_security_group.front -->
<g id="node7" class="node">
<title>aws_security_group.front</title>
<polygon fill="none" stroke="black" points="510.49,-108 355.49,-108 355.49,-72 510.49,-72 510.49,-108"/>
<text text-anchor="middle" x="432.99" y="-86.3" font-family="Times,serif" font-size="14.00">aws_security_group.front</text>
</g>
<!-- aws_security_group.rds&#45;&gt;aws_security_group.front -->
<g id="edge13" class="edge">
<title>aws_security_group.rds&#45;&gt;aws_security_group.front</title>
<path fill="none" stroke="black" d="M204.1,-144.05C248.01,-133.88 304.02,-120.89 349.64,-110.32"/>
<polygon fill="black" stroke="black" points="350.56,-113.7 359.51,-108.03 348.98,-106.88 350.56,-113.7"/>
</g>
<!-- aws_iam_instance_profile.front_profile -->
<g id="node3" class="node">
<title>aws_iam_instance_profile.front_profile</title>
<ellipse fill="none" stroke="black" cx="1019.99" cy="-90" rx="150.57" ry="18"/>
<text text-anchor="middle" x="1019.99" y="-86.3" font-family="Times,serif" font-size="14.00">aws_iam_instance_profile.front_profile</text>
</g>
<!-- aws_iam_role.front -->
<g id="node4" class="node">
<title>aws_iam_role.front</title>
<ellipse fill="none" stroke="black" cx="1019.99" cy="-18" rx="79.89" ry="18"/>
<text text-anchor="middle" x="1019.99" y="-14.3" font-family="Times,serif" font-size="14.00">aws_iam_role.front</text>
</g>
<!-- aws_iam_instance_profile.front_profile&#45;&gt;aws_iam_role.front -->
<g id="edge2" class="edge">
<title>aws_iam_instance_profile.front_profile&#45;&gt;aws_iam_role.front</title>
<path fill="none" stroke="black" d="M1019.99,-71.7C1019.99,-63.98 1019.99,-54.71 1019.99,-46.11"/>
<polygon fill="black" stroke="black" points="1023.49,-46.1 1019.99,-36.1 1016.49,-46.1 1023.49,-46.1"/>
</g>
<!-- aws_security_group_rule.elb_to_front_http -->
<g id="node5" class="node">
<title>aws_security_group_rule.elb_to_front_http</title>
<polygon fill="none" stroke="black" points="747.49,-252 496.49,-252 496.49,-216 747.49,-216 747.49,-252"/>
<text text-anchor="middle" x="621.99" y="-230.3" font-family="Times,serif" font-size="14.00">aws_security_group_rule.elb_to_front_http</text>
</g>
<!-- aws_security_group.elb&#45;front -->
<g id="node6" class="node">
<title>aws_security_group.elb&#45;front</title>
<polygon fill="none" stroke="black" points="924.99,-180 748.99,-180 748.99,-144 924.99,-144 924.99,-180"/>
<text text-anchor="middle" x="836.99" y="-158.3" font-family="Times,serif" font-size="14.00">aws_security_group.elb&#45;front</text>
</g>
<!-- aws_security_group_rule.elb_to_front_http&#45;&gt;aws_security_group.elb&#45;front -->
<g id="edge3" class="edge">
<title>aws_security_group_rule.elb_to_front_http&#45;&gt;aws_security_group.elb&#45;front</title>
<path fill="none" stroke="black" d="M674.31,-215.97C704.61,-206.1 742.94,-193.62 774.78,-183.25"/>
<polygon fill="black" stroke="black" points="776.01,-186.53 784.44,-180.11 773.84,-179.88 776.01,-186.53"/>
</g>
<!-- aws_security_group_rule.elb_to_front_http&#45;&gt;aws_security_group.front -->
<g id="edge4" class="edge">
<title>aws_security_group_rule.elb_to_front_http&#45;&gt;aws_security_group.front</title>
<path fill="none" stroke="black" d="M508.45,-215.87C487.28,-207.99 467.09,-196.56 451.99,-180 436.81,-163.35 432.64,-137.64 431.93,-118.12"/>
<polygon fill="black" stroke="black" points="435.43,-117.98 431.85,-108.02 428.43,-118.04 435.43,-117.98"/>
</g>
<!-- aws_instance.front -->
<g id="node8" class="node">
<title>aws_instance.front</title>
<ellipse fill="none" stroke="black" cx="1019.99" cy="-162" rx="77.19" ry="18"/>
<text text-anchor="middle" x="1019.99" y="-158.3" font-family="Times,serif" font-size="14.00">aws_instance.front</text>
</g>
<!-- aws_instance.front&#45;&gt;aws_iam_instance_profile.front_profile -->
<g id="edge5" class="edge">
<title>aws_instance.front&#45;&gt;aws_iam_instance_profile.front_profile</title>
<path fill="none" stroke="black" d="M1019.99,-143.7C1019.99,-135.98 1019.99,-126.71 1019.99,-118.11"/>
<polygon fill="black" stroke="black" points="1023.49,-118.1 1019.99,-108.1 1016.49,-118.1 1023.49,-118.1"/>
</g>
<!-- aws_instance.front&#45;&gt;aws_security_group.front -->
<g id="edge6" class="edge">
<title>aws_instance.front&#45;&gt;aws_security_group.front</title>
<path fill="none" stroke="black" d="M965.08,-149.27C954.78,-147.32 944.08,-145.46 933.99,-144 761.71,-119.09 716.77,-129.19 543.99,-108 536.37,-107.07 528.47,-106.02 520.55,-104.91"/>
<polygon fill="black" stroke="black" points="520.93,-101.43 510.54,-103.48 519.94,-108.36 520.93,-101.43"/>
</g>
<!-- aws_elasticache_cluster.redis -->
<g id="node9" class="node">
<title>aws_elasticache_cluster.redis</title>
<ellipse fill="none" stroke="black" cx="339.99" cy="-234" rx="114.28" ry="18"/>
<text text-anchor="middle" x="339.99" y="-230.3" font-family="Times,serif" font-size="14.00">aws_elasticache_cluster.redis</text>
</g>
<!-- aws_security_group.redis -->
<g id="node10" class="node">
<title>aws_security_group.redis</title>
<polygon fill="none" stroke="black" points="404.49,-180 249.49,-180 249.49,-144 404.49,-144 404.49,-180"/>
<text text-anchor="middle" x="326.99" y="-158.3" font-family="Times,serif" font-size="14.00">aws_security_group.redis</text>
</g>
<!-- aws_elasticache_cluster.redis&#45;&gt;aws_security_group.redis -->
<g id="edge7" class="edge">
<title>aws_elasticache_cluster.redis&#45;&gt;aws_security_group.redis</title>
<path fill="none" stroke="black" d="M336.78,-215.7C335.34,-207.98 333.62,-198.71 332.03,-190.11"/>
<polygon fill="black" stroke="black" points="335.43,-189.3 330.17,-180.1 328.55,-190.58 335.43,-189.3"/>
</g>
<!-- aws_security_group.redis&#45;&gt;aws_security_group.front -->
<g id="edge11" class="edge">
<title>aws_security_group.redis&#45;&gt;aws_security_group.front</title>
<path fill="none" stroke="black" d="M352.92,-143.88C366.65,-134.81 383.7,-123.55 398.53,-113.76"/>
<polygon fill="black" stroke="black" points="400.54,-116.62 406.96,-108.19 396.69,-110.78 400.54,-116.62"/>
</g>
<!-- aws_iam_policy_attachment.push&#45;logs -->
<g id="node11" class="node">
<title>aws_iam_policy_attachment.push&#45;logs</title>
<ellipse fill="none" stroke="black" cx="701.99" cy="-90" rx="148.67" ry="18"/>
<text text-anchor="middle" x="701.99" y="-86.3" font-family="Times,serif" font-size="14.00">aws_iam_policy_attachment.push&#45;logs</text>
</g>
<!-- aws_iam_policy_attachment.push&#45;logs&#45;&gt;aws_iam_role.front -->
<g id="edge8" class="edge">
<title>aws_iam_policy_attachment.push&#45;logs&#45;&gt;aws_iam_role.front</title>
<path fill="none" stroke="black" d="M770.21,-73.98C825.02,-61.92 901.46,-45.09 955.31,-33.24"/>
<polygon fill="black" stroke="black" points="956.07,-36.65 965.09,-31.09 954.57,-29.82 956.07,-36.65"/>
</g>
<!-- aws_iam_policy.push&#45;logs -->
<g id="node12" class="node">
<title>aws_iam_policy.push&#45;logs</title>
<ellipse fill="none" stroke="black" cx="701.99" cy="-18" rx="104.78" ry="18"/>
<text text-anchor="middle" x="701.99" y="-14.3" font-family="Times,serif" font-size="14.00">aws_iam_policy.push&#45;logs</text>
</g>
<!-- aws_iam_policy_attachment.push&#45;logs&#45;&gt;aws_iam_policy.push&#45;logs -->
<g id="edge9" class="edge">
<title>aws_iam_policy_attachment.push&#45;logs&#45;&gt;aws_iam_policy.push&#45;logs</title>
<path fill="none" stroke="black" d="M701.99,-71.7C701.99,-63.98 701.99,-54.71 701.99,-46.11"/>
<polygon fill="black" stroke="black" points="705.49,-46.1 701.99,-36.1 698.49,-46.1 705.49,-46.1"/>
</g>
<!-- aws_cloudwatch_metric_alarm.recover&#45;front -->
<g id="node13" class="node">
<title>aws_cloudwatch_metric_alarm.recover&#45;front</title>
<ellipse fill="none" stroke="black" cx="1083.99" cy="-234" rx="170.07" ry="18"/>
<text text-anchor="middle" x="1083.99" y="-230.3" font-family="Times,serif" font-size="14.00">aws_cloudwatch_metric_alarm.recover&#45;front</text>
</g>
<!-- aws_cloudwatch_metric_alarm.recover&#45;front&#45;&gt;aws_instance.front -->
<g id="edge10" class="edge">
<title>aws_cloudwatch_metric_alarm.recover&#45;front&#45;&gt;aws_instance.front</title>
<path fill="none" stroke="black" d="M1068.5,-216.05C1060.64,-207.46 1050.95,-196.86 1042.3,-187.4"/>
<polygon fill="black" stroke="black" points="1044.67,-184.81 1035.34,-179.79 1039.51,-189.53 1044.67,-184.81"/>
</g>
<!-- aws_security_group_rule.bastion_to_front_ssh -->
<g id="node14" class="node">
<title>aws_security_group_rule.bastion_to_front_ssh</title>
<polygon fill="none" stroke="black" points="730.99,-180 460.99,-180 460.99,-144 730.99,-144 730.99,-180"/>
<text text-anchor="middle" x="595.99" y="-158.3" font-family="Times,serif" font-size="14.00">aws_security_group_rule.bastion_to_front_ssh</text>
</g>
<!-- aws_security_group_rule.bastion_to_front_ssh&#45;&gt;aws_security_group.front -->
<g id="edge12" class="edge">
<title>aws_security_group_rule.bastion_to_front_ssh&#45;&gt;aws_security_group.front</title>
<path fill="none" stroke="black" d="M556.12,-143.88C533.83,-134.31 505.88,-122.3 482.23,-112.15"/>
<polygon fill="black" stroke="black" points="483.31,-108.8 472.74,-108.07 480.54,-115.23 483.31,-108.8"/>
</g>
<!-- aws_iam_role_policy_attachment.ec2&#45;tag&#45;describe -->
<g id="node15" class="node">
<title>aws_iam_role_policy_attachment.ec2&#45;tag&#45;describe</title>
<ellipse fill="none" stroke="black" cx="1378.99" cy="-90" rx="190.37" ry="18"/>
<text text-anchor="middle" x="1378.99" y="-86.3" font-family="Times,serif" font-size="14.00">aws_iam_role_policy_attachment.ec2&#45;tag&#45;describe</text>
</g>
<!-- aws_iam_role_policy_attachment.ec2&#45;tag&#45;describe&#45;&gt;aws_iam_role.front -->
<g id="edge14" class="edge">
<title>aws_iam_role_policy_attachment.ec2&#45;tag&#45;describe&#45;&gt;aws_iam_role.front</title>
<path fill="none" stroke="black" d="M1299.76,-73.55C1236.52,-61.22 1148.82,-44.12 1088.56,-32.37"/>
<polygon fill="black" stroke="black" points="1088.88,-28.87 1078.39,-30.39 1087.54,-35.74 1088.88,-28.87"/>
</g>
<!-- aws_iam_policy.ec2&#45;tag&#45;describe -->
<g id="node16" class="node">
<title>aws_iam_policy.ec2&#45;tag&#45;describe</title>
<ellipse fill="none" stroke="black" cx="1378.99" cy="-18" rx="128.88" ry="18"/>
<text text-anchor="middle" x="1378.99" y="-14.3" font-family="Times,serif" font-size="14.00">aws_iam_policy.ec2&#45;tag&#45;describe</text>
</g>
<!-- aws_iam_role_policy_attachment.ec2&#45;tag&#45;describe&#45;&gt;aws_iam_policy.ec2&#45;tag&#45;describe -->
<g id="edge15" class="edge">
<title>aws_iam_role_policy_attachment.ec2&#45;tag&#45;describe&#45;&gt;aws_iam_policy.ec2&#45;tag&#45;describe</title>
<path fill="none" stroke="black" d="M1378.99,-71.7C1378.99,-63.98 1378.99,-54.71 1378.99,-46.11"/>
<polygon fill="black" stroke="black" points="1382.49,-46.1 1378.99,-36.1 1375.49,-46.1 1382.49,-46.1"/>
</g>
<!-- aws_elb.front -->
<g id="node17" class="node">
<title>aws_elb.front</title>
<ellipse fill="none" stroke="black" cx="836.99" cy="-234" rx="59.29" ry="18"/>
<text text-anchor="middle" x="836.99" y="-230.3" font-family="Times,serif" font-size="14.00">aws_elb.front</text>
</g>
<!-- aws_elb.front&#45;&gt;aws_security_group.elb&#45;front -->
<g id="edge16" class="edge">
<title>aws_elb.front&#45;&gt;aws_security_group.elb&#45;front</title>
<path fill="none" stroke="black" d="M836.99,-215.7C836.99,-207.98 836.99,-198.71 836.99,-190.11"/>
<polygon fill="black" stroke="black" points="840.49,-190.1 836.99,-180.1 833.49,-190.1 840.49,-190.1"/>
</g>
<!-- aws_elb.front&#45;&gt;aws_instance.front -->
<g id="edge17" class="edge">
<title>aws_elb.front&#45;&gt;aws_instance.front</title>
<path fill="none" stroke="black" d="M872.28,-219.5C900.7,-208.63 940.95,-193.24 972.25,-181.26"/>
<polygon fill="black" stroke="black" points="973.57,-184.51 981.66,-177.66 971.07,-177.97 973.57,-184.51"/>
</g>
</g>
</svg>
