<?xml version="1.0" encoding="UTF-8" standalone="no"?>
<!DOCTYPE svg PUBLIC "-//W3C//DTD SVG 1.1//EN"
 "http://www.w3.org/Graphics/SVG/1.1/DTD/svg11.dtd">
<!-- Generated by graphviz version 2.44.0 (0)
 -->
<!-- Title: G Pages: 1 -->
<svg width="462pt" height="188pt"
 viewBox="0.00 0.00 462.38 188.00" xmlns="http://www.w3.org/2000/svg" xmlns:xlink="http://www.w3.org/1999/xlink">
<g id="graph0" class="graph" transform="scale(1 1) rotate(0) translate(4 184)">
<title>G</title>
<polygon fill="white" stroke="transparent" points="-4,4 -4,-184 458.38,-184 458.38,4 -4,4"/>
<!-- aws_elb.front -->
<g id="node1" class="node">
<title>aws_elb.front</title>
<ellipse fill="none" stroke="black" cx="221.99" cy="-162" rx="59.29" ry="18"/>
<text text-anchor="middle" x="221.99" y="-158.3" font-family="Times,serif" font-size="14.00">aws_elb.front</text>
</g>
<!-- aws_instance.front -->
<g id="node2" class="node">
<title>aws_instance.front</title>
<ellipse fill="none" stroke="black" cx="221.99" cy="-90" rx="77.19" ry="18"/>
<text text-anchor="middle" x="221.99" y="-86.3" font-family="Times,serif" font-size="14.00">aws_instance.front</text>
</g>
<!-- aws_elb.front&#45;&gt;aws_instance.front -->
<g id="edge1" class="edge">
<title>aws_elb.front&#45;&gt;aws_instance.front</title>
<path fill="none" stroke="black" d="M221.99,-143.7C221.99,-135.98 221.99,-126.71 221.99,-118.11"/>
<polygon fill="black" stroke="black" points="225.49,-118.1 221.99,-108.1 218.49,-118.1 225.49,-118.1"/>
</g>
<!-- aws_db_instance.magento -->
<g id="node3" class="node">
<title>aws_db_instance.magento</title>
<ellipse fill="none" stroke="black" cx="103.99" cy="-18" rx="103.98" ry="18"/>
<text text-anchor="middle" x="103.99" y="-14.3" font-family="Times,serif" font-size="14.00">aws_db_instance.magento</text>
</g>
<!-- aws_instance.front&#45;&gt;aws_db_instance.magento -->
<g id="edge2" class="edge">
<title>aws_instance.front&#45;&gt;aws_db_instance.magento</title>
<path fill="none" stroke="black" d="M194.92,-72.94C178.81,-63.39 158.16,-51.13 140.61,-40.72"/>
<polygon fill="black" stroke="black" points="142.14,-37.56 131.76,-35.47 138.57,-43.58 142.14,-37.56"/>
</g>
<!-- aws_elasticache_cluster.redis -->
<g id="node4" class="node">
<title>aws_elasticache_cluster.redis</title>
<ellipse fill="none" stroke="black" cx="339.99" cy="-18" rx="114.28" ry="18"/>
<text text-anchor="middle" x="339.99" y="-14.3" font-family="Times,serif" font-size="14.00">aws_elasticache_cluster.redis</text>
</g>
<!-- aws_instance.front&#45;&gt;aws_elasticache_cluster.redis -->
<g id="edge3" class="edge">
<title>aws_instance.front&#45;&gt;aws_elasticache_cluster.redis</title>
<path fill="none" stroke="black" d="M249.06,-72.94C265.17,-63.39 285.82,-51.13 303.37,-40.72"/>
<polygon fill="black" stroke="black" points="305.41,-43.58 312.23,-35.47 301.84,-37.56 305.41,-43.58"/>
</g>
</g>
</svg>
